<svg id="Capa_1" enable-background="new 0 0 512 512" height="512" viewBox="0 0 512 512" width="512" xmlns="http://www.w3.org/2000/svg"><g id="XMLID_1234_"><g id="XMLID_1162_"><g id="XMLID_1500_"><path id="XMLID_2233_" d="m387.477 340.307h-193.477c-101.62 0-184-82.38-184-184h492v69.477c0 63.249-51.274 114.523-114.523 114.523z" fill="#d29976"/><g id="XMLID_2288_"><path id="XMLID_2289_" d="m502 156.307h-492c0 21.508 3.703 42.148 10.484 61.333h481.516z" fill="#e6b9a0"/><path id="XMLID_2290_" d="m194 340.307h193.478c44.047 0 82.28-24.871 101.438-61.333h-432.048c33.691 37.639 82.641 61.333 137.132 61.333z" fill="#d29976"/><path id="XMLID_2293_" d="m502 217.64h-481.516c8.079 22.855 20.541 43.636 36.383 61.334h432.048c8.352-15.894 13.085-33.988 13.085-53.19z" fill="#dca98b"/></g></g><g id="XMLID_1346_"><g id="XMLID_1347_"><path id="XMLID_1353_" d="m336.693 299.397 20.423-20.423h55.144l83.669 83.669c8.096 8.096 8.096 21.221 0 29.317l-46.25 46.25c-8.096 8.096-21.221 8.096-29.317 0l-83.669-83.669c0-21.535 0-33.609 0-55.144z" fill="#ffcb7c"/><path id="XMLID_1260_" d="m129.24 92.411 20.891-20.891c5.833-5.833 15.557-4.814 20.054 2.101l19.586 30.113-28.317 28.317-30.113-19.586c-6.916-4.497-7.934-14.221-2.101-20.054z" fill="#f5737f"/><path id="XMLID_1350_" d="m387.481 329.762c7.819-7.819 7.819-20.497 0-28.317l-197.711-197.71-28.317 28.317 197.711 197.711c7.82 7.819 20.498 7.819 28.317-.001z" fill="#ffe6c0"/></g></g></g><g id="XMLID_405_"><path id="XMLID_198_" d="m512 225.785v-69.478c0-5.523-4.477-10-10-10h-84.437c-5.523 0-10 4.477-10 10s4.477 10 10 10h74.437v41.333h-184.182l-41.333-41.333h61.078c5.523 0 10-4.477 10-10s-4.477-10-10-10h-81.078l-48.904-48.904-19.014-29.233c-3.796-5.836-9.944-9.599-16.868-10.324-6.929-.725-13.718 1.683-18.64 6.604l-20.891 20.89c-4.922 4.923-7.33 11.717-6.604 18.641s4.488 13.072 10.324 16.867l29.233 19.013 6.445 6.445h-151.566c-5.523 0-10 4.477-10 10 0 106.972 87.028 194 194 194h132.693v4.233c0 2.652 1.054 5.195 2.929 7.071l83.669 83.669c5.804 5.804 13.521 9.001 21.729 9.001s15.925-3.197 21.729-9.001l46.25-46.25c5.804-5.804 9.001-13.521 9.001-21.729s-3.196-15.925-9-21.729l-34.894-34.894c27.671-23.549 43.894-58.238 43.894-94.892zm-20.028 1.856c-.257 14.445-3.507 28.489-9.342 41.333h-113.478l-41.333-41.333zm-331.86-108.391-23.32-15.167c-1.035-.673-1.282-1.658-1.337-2.185s-.018-1.542.856-2.415l20.891-20.891c.72-.72 1.537-.872 2.097-.872.119 0 .226.007.318.017.527.055 1.512.302 2.185 1.337l15.167 23.32-8.429 8.428zm-139.828 47.057h161.282l41.334 41.333h-195.172c-4.078-13.182-6.63-27.029-7.444-41.333zm15.026 61.334h207.59l41.334 41.333h-222.71c-10.566-12.406-19.43-26.301-26.214-41.333zm291.383 102.666h-132.693c-42.837 0-82.101-15.568-112.451-41.333h222.685l22.459 22.459zm-151.098-198.256 7.088-7.087 7.087-7.087 190.64 190.64c3.908 3.907 3.908 10.267 0 14.174-3.908 3.909-10.268 3.907-14.174 0zm313.262 237.663c2.027 2.026 3.143 4.721 3.143 7.587s-1.116 5.561-3.143 7.587l-46.25 46.25c-2.026 2.027-4.721 3.144-7.587 3.144s-5.561-1.116-7.587-3.144l-80.74-80.74v-18.965l5.4 5.4c5.853 5.853 13.541 8.779 21.229 8.779s15.376-2.927 21.229-8.779c11.706-11.706 11.706-30.753 0-42.459l-5.4-5.4h18.965zm-34.955-63.24-17.5-17.5h34.302c-4.866 6.416-10.492 12.296-16.802 17.5z"/><path id="XMLID_416_" d="m372.56 166.31c2.63 0 5.21-1.07 7.07-2.93 1.87-1.86 2.93-4.44 2.93-7.07s-1.06-5.21-2.93-7.07c-1.86-1.87-4.44-2.93-7.07-2.93s-5.21 1.06-7.07 2.93c-1.86 1.86-2.93 4.43-2.93 7.07 0 2.63 1.07 5.21 2.93 7.07s4.44 2.93 7.07 2.93z"/></g></g></svg>