<svg height="512" viewBox="0 0 60 60" width="512" xmlns="http://www.w3.org/2000/svg"><g id="Page-1" fill="none" fill-rule="evenodd"><g id="030---Steam-Boat" fill-rule="nonzero" transform="translate(-1)"><path id="Shape" d="m58.14 42-3.17 13h-48.97l-2-8h.06l33.43-.96c1.3722411-.0360369 2.712019-.4252269 3.89-1.13l2.42-1.46c.5398999-.318475 1.1451677-.5099722 1.77-.56z" fill="#ffdc00"/><path id="Shape" d="m55.087 42.216-3.117 12.784h3l3.17-13z" fill="#fec108"/><path id="Shape" d="m54.97 55-.6 2.47c-.2166768.8962161-1.0179649 1.5281598-1.94 1.53h-43.87c-.91717979.0033108-1.71807649-.6200676-1.94-1.51l-.62-2.49z" fill="#ff9801"/><path id="Shape" d="m51.97 55-.6 2.47c-.2166768.8962161-1.0179649 1.5281598-1.94 1.53h3c.9220351-.0018402 1.7233232-.6337839 1.94-1.53l.6-2.47z" fill="#f57c00"/><path id="Shape" d="m60 39.86c.0705343 1.1022884-.7586347 2.0562786-1.86 2.14l-12.57.89c-.6248323.0500278-1.2301001.241525-1.77.56l-2.42 1.46c-1.177981.7047731-2.5177589 1.0939631-3.89 1.13l-33.43.96h-.06c-1.1045695.0165685-2.01343146-.8654305-2.03-1.97s.8654305-2.0134315 1.97-2.03l11.06-.31 19-.54 3.37-.1c.6878367-.0214553 1.3588976-.2176116 1.95-.57l2.42-1.46c1.0808188-.6427947 2.2959863-1.0261715 3.55-1.12l1.71-.12 10.86-.78c1.1021012-.0699807 2.0557564.7588972 2.14 1.86z" fill="#f44335"/><path id="Shape" d="m57.86 38-2.118.152c.7115916.2817393 1.2000056.9448642 1.258 1.708.0705343 1.1022884-.7586347 2.0562786-1.86 2.14l-12.57.89c-.6248323.0500278-1.2301001.241525-1.77.56l-2.42 1.46c-1.177981.7047731-2.5177589 1.0939631-3.89 1.13l-30.99.89c.16302755.0444241.33104064.067946.5.07h.06l33.43-.96c1.3722411-.0360369 2.712019-.4252269 3.89-1.13l2.42-1.46c.5398999-.318475 1.1451677-.5099722 1.77-.56l12.57-.89c.7145312-.0500172 1.3481014-.4774328 1.6620508-1.1212436.3139494-.6438107.2605817-1.4062064-.14-2-.4005817-.5937935-1.0875196-.9287736-1.8020508-.8787564z" fill="#c81e1e"/><path id="Shape" d="m47 24v14.78l-1.71.12c-1.2540137.0938285-2.4691812.4772053-3.55 1.12l-2.42 1.46c-.5911024.3523884-1.2621633.5485447-1.95.57l-3.37.1v-18.15z" fill="#ffeb3a"/><path id="Shape" d="m44 24v14.78l-1.71.12c-1.2540137.0938285-2.4691812.4772053-3.55 1.12l-2.42 1.46c-.5911024.3523884-1.2621633.5485447-1.95.57l-.37.011v.089l3.37-.1c.6878367-.0214553 1.3588976-.2176116 1.95-.57l2.42-1.46c1.0808188-.6427947 2.2959863-1.0261715 3.55-1.12l1.71-.12v-14.78z" fill="#fdd834"/><rect id="Rectangle-path" fill="#f44335" height="4" rx="1" width="16" x="33" y="20"/><path id="Shape" d="m48 20h-3c.5522847 0 1 .4477153 1 1v2c0 .5522847-.4477153 1-1 1h3c.5522847 0 1-.4477153 1-1v-2c0-.5522847-.4477153-1-1-1z" fill="#c81e1e"/><path id="Shape" d="m34 28v4h-30c-.55228475 0-1-.4477153-1-1v-2c0-.5522847.44771525-1 1-1z" fill="#f44335"/><path id="Rectangle-path" d="m31 28h3v4h-3z" fill="#c81e1e"/><path id="Shape" d="m34 32v10.15l-19 .54v-10.69z" fill="#ffdc00"/><path id="Shape" d="m31 32v10.15l-16 .455v.085l19-.54v-10.15z" fill="#fec108"/><g fill="#02a9f4"><path id="Shape" d="m19 39c-.5522847 0-1-.4477153-1-1v-2c0-.5522847.4477153-1 1-1s1 .4477153 1 1v2c0 .5522847-.4477153 1-1 1z"/><path id="Shape" d="m24 39c-.5522847 0-1-.4477153-1-1v-2c0-.5522847.4477153-1 1-1s1 .4477153 1 1v2c0 .5522847-.4477153 1-1 1z"/><path id="Shape" d="m29 39c-.5522847 0-1-.4477153-1-1v-2c0-.5522847.4477153-1 1-1s1 .4477153 1 1v2c0 .5522847-.4477153 1-1 1z"/><path id="Shape" d="m39 31c-.5522847 0-1-.4477153-1-1v-2c0-.5522847.4477153-1 1-1s1 .4477153 1 1v2c0 .5522847-.4477153 1-1 1z"/><path id="Shape" d="m43 31c-.5522847 0-1-.4477153-1-1v-2c0-.5522847.4477153-1 1-1s1 .4477153 1 1v2c0 .5522847-.4477153 1-1 1z"/></g><path id="Shape" d="m29 9.73v18.27h-6v-18.27c.3038396.17625351.6487402.26937666 1 .27h4c.3512598-.00062334.6961604-.09374649 1-.27z" fill="#7f8e94"/><path id="Shape" d="m28 10h-2v18h3v-18.27c-.3038396.17625351-.6487402.26937666-1 .27z" fill="#545c60"/><path id="Shape" d="m29 2v4.27c-.3038396-.17625351-.6487402-.26937666-1-.27h-4c-.3512598.00062334-.6961604.09374649-1 .27v-4.27c0-.55228475.4477153-1 1-1h4c.5522847 0 1 .44771525 1 1z" fill="#7f8e94"/><path id="Shape" d="m28 1h-3c.5522847 0 1 .44771525 1 1v4h2c.3512598.00062334.6961604.09374649 1 .27v-4.27c0-.55228475-.4477153-1-1-1z" fill="#545c60"/><path id="Shape" d="m30 8c.0028231.53059053-.2101411 1.0395388-.59 1.41-.1205771.12581701-.2586643.23359237-.41.32-.3038396.17625351-.6487402.26937666-1 .27h-4c-1.1045695 0-2-.8954305-2-2-.0028231-.53059053.2101411-1.0395388.59-1.41.1205771-.12581701.2586643-.23359237.41-.32.3038396-.17625351.6487402-.26937666 1-.27h4c1.1045695 0 2 .8954305 2 2z" fill="#607d8b"/><path id="Shape" d="m29 6.27c-.3038396-.17625351-.6487402-.26937666-1-.27h-3c1.1045695 0 2 .8954305 2 2 .0028231.53059053-.2101411 1.0395388-.59 1.41-.1205771.12581701-.2586643.23359237-.41.32-.3038396.17625351-.6487402.26937666-1 .27h3c.3512598-.00062334.6961604-.09374649 1-.27.1513357-.08640763.2894229-.19418299.41-.32.3798589-.3704612.5928231-.87940947.59-1.41-.0007321-.71379839-.3818319-1.37310099-1-1.73z" fill="#37474f"/><path id="Shape" d="m2 36c-.55228475 0-1 .4477153-1 1s.44771525 1 1 1h1v4.185c-1.23236208.4297318-2.04227077 1.6107086-1.9991871 2.9151355s.92915473 2.4293875 2.1871871 2.7768645l.531 2.123h-.719c-.55228475 0-1 .4477153-1 1s.44771525 1 1 1h1.219l1.432 5.728c.33407964 1.335552 1.53429808 2.2723078 2.911 2.272h43.867c1.3843313.0026506 2.5898483-.9443937 2.915-2.29l1.391-5.71h1.265c.5522847 0 1-.4477153 1-1s-.4477153-1-1-1h-.778l1.747-7.173c1.4252547-.4858477 2.2679179-1.9546378 1.9679779-3.4302513-.2999399-1.4756134-1.6491488-2.4988735-3.1509779-2.3897487l-9.786.7v-12.707c1.1045695 0 2-.8954305 2-2v-2c0-1.1045695-.8954305-2-2-2h-14c-1.1045695 0-2 .8954305-2 2v2c.002145.7113268.3832487 1.3675874 1 1.722v2.278h-3v-16.78c.6359576-.56259277 1.0001018-1.37091068 1.0001018-2.22s-.3641442-1.65740723-1.0001018-2.22v-3.78c0-1.1045695-.8954305-2-2-2h-4c-1.1045695 0-2 .8954305-2 2v3.78c-.6359576.56259277-1.0001018 1.37091068-1.0001018 2.22s.3641442 1.65740723 1.0001018 2.22v16.78h-4v-6h1c.5522847 0 1-.4477153 1-1s-.4477153-1-1-1h-1c-1.1045695 0-2 .8954305-2 2v6h-12c-1.1045695 0-2 .8954305-2 2v2c0 1.1045695.8954305 2 2 2h10v3zm12 5.713-4 .115v-3.828h4zm-6-3.713v3.885l-3 .085v-3.97zm44.429 20h-43.867c-.45905212.0004469-.8594505-.3117071-.971-.757l-.311-1.243h46.42l-.3 1.236c-.1088189.448073-.5099025.7636527-.971.764zm1.76-4h-47.409l-.5-2h48.4zm-48.409-4-.509-2.035 32.245-.922c1.5436774-.0445388 3.0500812-.4845808 4.375-1.278l2.422-1.454c.4044778-.2426921.8604841-.3865859 1.331-.42l11.2-.8-1.681 6.909zm52.139-11h.066c.5522847-.0237482 1.0192518.4047153 1.043.957s-.4047153 1.0192518-.957 1.043l-12.571.9c-.7840222.0560388-1.5438451.2958387-2.218.7l-2.421 1.45c-1.0293677.6173554-2.2001893.9596486-3.4.994l-33.431.956-.03 1v-1c-.55228473.0074558-1.00604412-.4342153-1.01349996-.9865s.43421523-1.0060441.98649996-1.0135h.027l4.985-.143h.013.017l5.963-.17h.02.026l18.942-.542c.011 0 .021.007.032.007s.027-.008.042-.009l3.36-.1c.8578836-.0246938 1.6950117-.2695306 2.431-.711l2.423-1.454c.9427765-.5639317 2.004385-.899537 3.1-.98zm-11.919-1.151-.783.056c-1.4103042.1025639-2.7768967.5344619-3.99 1.261l-2.427 1.454c-.4415537.2643909-.9435593.4110674-1.458.426l-2.342.067v-16.113h11zm-12-16.849h14v2h-14zm-11-13c0-.55228475.4477153-1 1-1h4c.5522847 0 1 .44771525 1 1s-.4477153 1-1 1h-4c-.5522847 0-1-.44771525-1-1zm1-6h4v3h-4zm0 9h4v16h-4zm-20 18h29v2h-29zm29 4v8.171l-17 .485v-8.656z" fill="#000"/></g></g></svg>