<svg height="512" viewBox="0 0 50 60" width="512" xmlns="http://www.w3.org/2000/svg"><g id="Page-1" fill="none" fill-rule="evenodd"><g id="022---Boat-Insurance" fill-rule="nonzero"><path id="Shape" d="m31.96 17c-.211225-.0125623-.4135793-.0893174-.58-.22-1.8423749-1.3560137-4.0949228-2.0374271-6.38-1.93-2.2850772-.1074271-4.5376251.5739863-6.38 1.93-.1766962.1397973-.3947074.2171561-.62.22 0 0-1-9.98 6.98-15.98 7.98 6 6.98 15.98 6.98 15.98z" fill="#f44335"/><path id="Shape" d="m18 17c-.2252926-.0028439-.4433038-.0802027-.62-.22-1.8423749-1.3560137-4.0949228-2.0374271-6.38-1.93-1.85241464-.0505125-3.6870429.3728632-5.33 1.23-.34530392.178551-.76250622.1426302-1.07220836-.0923163-.30970213-.2349464-.45670298-.6270418-.37779164-1.0076837 1.48-7.9 10.2-13.96 20.74-13.98l.02.02c-7.98 6-6.98 15.98-6.98 15.98z" fill="#f5f5f5"/><path id="Shape" d="m44.33 16.08c-1.6429571-.8571368-3.4775854-1.2805125-5.33-1.23-2.2850772-.1074271-4.5376251.5739863-6.38 1.93-.1878259.1476607-.4211428.225433-.66.22 0 0 1-9.98-6.98-15.98l.02-.02c10.56 0 19.3 6.07 20.78 13.98.0789113.3806419-.0680895.7727373-.3777916 1.0076837-.3097022.2349465-.7269045.2708673-1.0722084.0923163z" fill="#f5f5f5"/><path id="Shape" d="m45.78 14.98c-1.48-7.91-10.22-13.98-20.78-13.98l-.02.02c.081.061.155.124.234.186 9.074 1.088 16.239 6.684 17.566 13.774.025167.1418956.019368.2875543-.017.427.5425902.1738749 1.0673114.3992338 1.567.673.3453039.178551.7625062.1426302 1.0722084-.0923163.3097021-.2349464.4567029-.6270418.3777916-1.0076837z" fill="#cfd8dc"/><rect id="Rectangle-path" fill="#f44335" height="4" rx="2" width="24" x="18" y="28"/><path id="Shape" d="m40 28h-3c1.1045695 0 2 .8954305 2 2s-.8954305 2-2 2h3c1.1045695 0 2-.8954305 2-2s-.8954305-2-2-2z" fill="#c81e1e"/><path id="Shape" d="m18.18 42.91 1.82-10.91h20l3.72 7.43z" fill="#02a9f4"/><path id="Shape" d="m40 32h-3l3.72 7.43-22.47 3.062-.07.418 25.54-3.48z" fill="#0377bc"/><path id="Shape" d="m3 49c-1.04974817-.003642-1.91803502-.8182687-1.98854465-1.8656525-.07050964-1.0473838.68075651-1.9710384 1.72054465-2.1153475l44-6c.7175366-.1169967 1.4420499.1645919 1.8922496.7354396.4501997.5708478.5551726 1.3410376.2741632 2.0115454-.2810095.6705078-.9037379 1.1357183-1.6264128 1.215015l-44 6c-.09010675.0127247-.18099924.0190738-.272.019z" fill="#f44335"/><path id="Shape" d="m48.981 40.73c-.1494703-1.0938699-1.157028-1.8597212-2.251-1.711l-1.763.24c.7545685.4151819 1.1570818 1.2680903.9978967 2.1145002s-.8440516 1.4948137-1.6978967 1.6074998l-42.241 5.761c.29705541.1683831.63254105.2572489.974.258.09100076.0000738.18189325-.0062753.272-.019l44-6c1.0930598-.150463 1.8577798-1.1577098 1.709-2.251z" fill="#c81e1e"/><path id="Shape" d="m47 43.02v3.98c0 6.627417-5.372583 12-12 12h-29c-1.1045695 0-2-.8954305-2-2v-8.12z" fill="#ffdc00"/><path id="Shape" d="m44 43.429v3.571c0 6.627417-5.372583 12-12 12h3c6.627417 0 12-5.372583 12-12v-3.98z" fill="#fec108"/><path id="Shape" d="m3 57c0 1.6568542 1.34314575 3 3 3h29c7.1762751-.008266 12.991734-5.8237249 13-13v-3.173c1.4479126-.5144521 2.2730326-2.0397645 1.9112696-3.5331632-.3617629-1.4933986-1.7934396-2.4720215-3.3162696-2.2668368l-2.3.314-2.864-5.721c1.207166-.6507832 1.8165887-2.039566 1.478189-3.368571-.3383996-1.329005-1.53779-2.2572164-2.909189-2.251429h-14v-11.112c1.7182018.0662475 3.3764497.6493179 4.758 1.673.7243638.5858694 1.7596362.5858694 2.484 0 1.6665969-1.2135941 3.6989823-1.8189329 5.758-1.715 1.6846627-.0463393 3.3534961.335944 4.85 1.111.6660057.3685759 1.4853893.3170718 2.1-.132.6439201-.4603646.9603784-1.2538546.81-2.031-1.579-8.434-10.935-14.794-21.76-14.794s-20.181 6.36-21.761 14.794c-.15037842.7771454.16607995 1.5706354.81 2.031.61405692.4503676 1.43403084.5022993 2.1.133 1.49663475-.7757749 3.16589245-1.1584207 4.851-1.112 2.0588991-.1042215 4.0912731.5007609 5.758 1.714.7240933.5866336 1.7599067.5866336 2.484 0 1.3819322-1.0228261 3.0400111-1.6054885 4.758-1.672v11.112h-4c-1.429487.003606-2.6578693 1.0153264-2.9353646 2.4176254-.2774953 1.4022989.4729864 2.8056088 1.7933646 3.3533746l-1.543 9.25-14.715 2.007c-1.56093331.2147199-2.6897658 1.6003916-2.58446707 3.1725015.10529872 1.5721099 1.40884149 2.7948629 2.98446707 2.7994985zm41.817-41.793c-1.7918354-.9406259-3.793848-1.4090356-5.817-1.361-2.0975768-.0555581-4.1715489.4535234-6.005 1.474-.0768754-4.8808015-1.9445649-9.56319291-5.248-13.157 8.668.937 15.777 6.207 17.07 13.044zm-33.817-1.361c-2.01047206-.0431826-4.00067112.4091198-5.795 1.317 1.271-6.785 8.355-12.046 17-12.995-3.2946081 3.58650565-5.1596724 8.2566378-5.242 13.126-1.8251906-1.0000821-3.8824188-1.4996405-5.963-1.448zm7.973 1.489c.1-2.815.932-8.834 6.007-13.046 5.04 4.185 5.9 10.183 6 13.014-1.8291652-1.0065848-3.8928215-1.5093853-5.98-1.457-2.1066074-.0570965-4.1893469.4574545-6.027 1.489zm16.027 42.665h-29c-.55228475 0-1-.4477153-1-1v-2h8c.5522847 0 1-.4477153 1-1s-.4477153-1-1-1h-8v-3.245l41-5.591v2.836c-.0071635 6.0721626-4.9278374 10.9928365-11 11zm4.382-25 2.818 5.627-11.2 1.527v-7.154zm-19.382-4h20c.5522847 0 1 .4477153 1 1s-.4477153 1-1 1h-20c-.5522847 0-1-.4477153-1-1s.4477153-1 1-1zm.847 4h8.153v7.427l-9.61 1.311zm-18.838 14.135c-.03584612-.2628364.03420863-.5291459.1947473-.7403218.16053867-.2111758.39840535-.3499125.6612527-.3856782l44-6c.0447589-.0059075.089853-.0089138.135-.009.5262731-.0000727.9625413.4077638.997881.932849.0353398.5250853-.3423444.9877031-.863881 1.058151l-44 6c-.54697562.0740456-1.0505062-.3090852-1.125-.856z" fill="#000"/></g></g></svg>